<?xml version="1.0" encoding="UTF-8" ?>
<!DOCTYPE svg PUBLIC "-//W3C//DTD SVG 1.1//EN" "http://www.w3.org/Graphics/SVG/1.1/DTD/svg11.dtd">
<svg width="512pt" height="512pt" viewBox="0 0 512 512" version="1.1" xmlns="http://www.w3.org/2000/svg">
<g id="#26557cff">
<path fill="#26557c" opacity="1.00" d=" M 48.53 32.74 C 50.62 32.17 52.80 32.01 54.96 31.99 C 187.00 32.02 319.04 31.99 451.07 32.00 C 455.93 32.04 461.00 31.55 465.60 33.45 C 474.01 36.51 480.02 45.08 479.99 54.03 C 480.01 186.68 479.99 319.32 480.00 451.96 C 479.97 456.96 480.39 462.28 478.06 466.90 C 474.52 475.02 465.84 480.33 457.02 480.14 C 322.68 480.12 188.34 480.18 54.00 480.11 C 42.36 480.10 31.72 469.80 32.03 458.03 C 31.98 323.35 32.02 188.66 32.01 53.97 C 31.96 44.24 39.13 35.14 48.53 32.74 M 120.37 113.41 C 115.98 115.19 113.17 119.59 112.41 124.15 C 111.40 130.39 112.22 137.10 115.56 142.56 C 123.50 156.04 135.40 166.94 141.81 181.37 C 148.28 195.22 151.22 211.36 162.47 222.47 C 166.63 226.19 163.18 231.65 162.19 236.00 C 158.23 251.66 157.68 268.10 159.26 284.14 C 160.32 292.85 163.17 301.29 166.84 309.22 C 169.40 314.45 173.19 319.89 179.15 321.41 C 184.61 322.95 190.43 319.89 193.23 315.17 C 197.37 309.03 196.66 300.85 201.00 294.86 C 204.56 298.53 206.70 303.26 209.71 307.36 C 216.75 317.78 225.75 326.67 235.32 334.76 C 239.40 338.18 243.25 342.17 248.24 344.23 C 244.27 336.40 238.11 329.96 233.41 322.57 C 223.58 308.10 215.51 292.57 206.54 277.57 C 204.27 274.21 202.44 270.23 199.02 267.87 C 194.78 267.85 192.07 271.77 190.18 275.07 C 185.86 282.51 185.01 291.23 182.34 299.27 C 181.52 301.59 179.40 305.63 176.43 303.53 C 172.70 300.02 171.46 294.74 169.98 290.02 C 164.83 273.38 167.50 255.41 173.12 239.25 C 174.57 234.46 176.64 229.84 177.60 224.92 C 176.57 221.71 174.74 218.85 173.16 215.91 C 166.28 203.76 159.23 191.60 154.55 178.40 C 152.37 172.24 149.94 166.10 146.38 160.60 C 140.88 151.64 132.59 144.56 128.21 134.91 C 126.50 131.94 128.48 128.14 132.06 128.47 C 144.62 128.57 155.42 136.13 165.69 142.54 C 172.96 147.10 181.87 145.32 189.97 146.03 C 197.40 146.34 204.10 149.96 210.28 153.79 C 222.01 161.20 233.54 168.98 244.33 177.70 C 256.03 187.25 267.31 197.82 274.91 211.03 C 284.15 226.88 291.91 243.54 300.08 259.96 C 305.87 271.49 311.06 283.54 319.29 293.61 C 323.80 299.20 329.54 303.96 336.31 306.51 C 347.26 310.62 358.68 313.96 368.55 320.40 C 372.86 323.39 377.35 326.18 381.26 329.68 C 373.87 331.19 366.37 332.14 358.89 333.12 C 353.10 333.91 346.99 335.37 342.59 339.45 C 340.17 341.61 338.85 345.43 340.85 348.30 C 345.59 355.70 352.74 361.13 359.47 366.62 C 375.65 379.53 394.46 388.38 412.19 398.85 C 413.32 399.55 414.64 399.80 415.93 400.09 C 416.10 396.82 414.76 393.76 413.11 391.03 C 409.54 385.38 404.51 380.85 399.44 376.58 C 390.02 368.81 379.93 361.90 369.94 354.90 C 368.38 353.72 366.67 352.61 365.60 350.94 C 364.81 349.18 367.41 349.02 368.48 348.65 C 377.97 346.97 387.76 347.09 397.08 344.43 C 399.49 343.64 402.24 342.87 403.76 340.66 C 404.45 339.09 403.05 337.79 402.28 336.60 C 397.50 330.47 392.00 324.96 386.47 319.52 C 379.68 312.93 372.72 306.34 364.48 301.56 C 352.79 294.65 339.42 290.12 329.60 280.40 C 323.62 274.61 320.05 266.85 317.84 258.93 C 313.27 243.07 305.57 228.28 296.51 214.54 C 285.39 197.73 272.08 182.40 257.33 168.69 C 240.20 152.92 220.69 138.57 197.90 132.46 C 190.01 130.15 181.62 130.49 173.77 128.08 C 169.01 126.67 165.16 123.39 160.71 121.31 C 153.20 117.73 145.26 115.06 137.15 113.24 C 131.67 112.10 125.69 111.11 120.37 113.41 M 173.13 160.15 C 170.55 160.70 167.73 163.02 168.09 165.90 C 168.61 168.17 171.02 169.02 172.76 170.18 C 176.83 172.46 178.95 176.79 181.38 180.56 C 182.74 182.56 185.14 184.60 187.73 183.75 C 190.70 182.50 191.73 179.00 191.94 176.06 C 192.02 172.07 191.53 167.36 188.00 164.84 C 183.80 161.68 178.44 159.59 173.13 160.15 Z" />
</g>
<g id="#ffffffff">
<path fill="#ffffff" opacity="1.00" d=" M 120.37 113.41 C 125.69 111.11 131.67 112.10 137.15 113.24 C 145.26 115.06 153.20 117.73 160.71 121.31 C 165.16 123.39 169.01 126.67 173.77 128.08 C 181.62 130.49 190.01 130.15 197.90 132.46 C 220.69 138.57 240.20 152.92 257.33 168.69 C 272.08 182.40 285.39 197.73 296.51 214.54 C 305.57 228.28 313.27 243.07 317.84 258.93 C 320.05 266.85 323.62 274.61 329.60 280.40 C 339.42 290.12 352.79 294.65 364.48 301.56 C 372.72 306.34 379.68 312.93 386.47 319.52 C 392.00 324.96 397.50 330.47 402.28 336.60 C 403.05 337.79 404.45 339.09 403.76 340.66 C 402.24 342.87 399.49 343.64 397.08 344.43 C 387.76 347.09 377.97 346.97 368.48 348.65 C 367.41 349.02 364.81 349.18 365.60 350.94 C 366.67 352.61 368.38 353.72 369.94 354.90 C 379.93 361.90 390.02 368.81 399.44 376.58 C 404.51 380.85 409.54 385.38 413.11 391.03 C 414.76 393.76 416.10 396.82 415.93 400.09 C 414.64 399.80 413.32 399.55 412.19 398.85 C 394.46 388.38 375.65 379.53 359.47 366.62 C 352.74 361.13 345.59 355.70 340.85 348.30 C 338.85 345.43 340.17 341.61 342.59 339.45 C 346.99 335.37 353.10 333.91 358.89 333.12 C 366.37 332.14 373.87 331.19 381.26 329.68 C 377.35 326.18 372.86 323.39 368.55 320.40 C 358.68 313.96 347.26 310.62 336.31 306.51 C 329.54 303.96 323.80 299.20 319.29 293.61 C 311.06 283.54 305.87 271.49 300.08 259.96 C 291.91 243.54 284.15 226.88 274.91 211.03 C 267.31 197.82 256.03 187.25 244.33 177.70 C 233.54 168.98 222.01 161.20 210.28 153.79 C 204.10 149.96 197.40 146.34 189.97 146.03 C 181.87 145.32 172.96 147.10 165.69 142.54 C 155.42 136.13 144.62 128.57 132.06 128.47 C 128.48 128.14 126.50 131.94 128.21 134.91 C 132.59 144.56 140.88 151.64 146.38 160.60 C 149.94 166.10 152.37 172.24 154.55 178.40 C 159.23 191.60 166.28 203.76 173.16 215.91 C 174.74 218.85 176.57 221.71 177.60 224.92 C 176.64 229.84 174.57 234.46 173.12 239.25 C 167.50 255.41 164.83 273.38 169.98 290.02 C 171.46 294.74 172.70 300.02 176.43 303.53 C 179.40 305.63 181.52 301.59 182.34 299.27 C 185.01 291.23 185.86 282.51 190.18 275.07 C 192.07 271.77 194.78 267.85 199.02 267.87 C 202.44 270.23 204.27 274.21 206.54 277.57 C 215.51 292.57 223.58 308.10 233.41 322.57 C 238.11 329.96 244.27 336.40 248.24 344.23 C 243.25 342.17 239.40 338.18 235.32 334.76 C 225.75 326.67 216.75 317.78 209.71 307.36 C 206.70 303.26 204.56 298.53 201.00 294.86 C 196.66 300.85 197.37 309.03 193.23 315.17 C 190.43 319.89 184.61 322.95 179.15 321.41 C 173.19 319.89 169.40 314.45 166.84 309.22 C 163.17 301.29 160.32 292.85 159.26 284.14 C 157.68 268.10 158.23 251.66 162.19 236.00 C 163.18 231.65 166.63 226.19 162.47 222.47 C 151.22 211.36 148.28 195.22 141.81 181.37 C 135.40 166.94 123.50 156.04 115.56 142.56 C 112.22 137.10 111.40 130.39 112.41 124.15 C 113.17 119.59 115.98 115.19 120.37 113.41 Z" />
<path fill="#ffffff" opacity="1.00" d=" M 173.13 160.15 C 178.44 159.59 183.80 161.68 188.00 164.84 C 191.53 167.36 192.02 172.07 191.94 176.06 C 191.73 179.00 190.70 182.50 187.73 183.75 C 185.14 184.60 182.74 182.56 181.38 180.56 C 178.95 176.79 176.83 172.46 172.76 170.18 C 171.02 169.02 168.61 168.17 168.09 165.90 C 167.73 163.02 170.55 160.70 173.13 160.15 Z" />
</g>
</svg>
