<?xml version="1.0" encoding="UTF-8" ?>
<!DOCTYPE svg PUBLIC "-//W3C//DTD SVG 1.1//EN" "http://www.w3.org/Graphics/SVG/1.1/DTD/svg11.dtd">
<svg width="1200pt" height="1200pt" viewBox="0 0 1200 1200" version="1.1" xmlns="http://www.w3.org/2000/svg">
<g id="#003b57ff">
<path fill="#003b57" opacity="1.00" d=" M 941.61 41.59 C 958.35 32.19 976.79 25.13 996.08 23.70 C 1011.94 22.47 1028.14 25.61 1042.31 32.87 C 1055.96 39.73 1067.65 49.95 1077.69 61.37 C 1095.05 81.12 1106.18 105.83 1111.30 131.51 C 1118.11 165.31 1115.89 200.27 1109.90 234.01 C 1101.57 279.92 1086.19 324.24 1068.17 367.16 C 1037.17 440.25 997.96 509.56 955.59 576.60 C 909.05 591.99 864.79 613.46 821.71 636.68 C 809.01 643.65 796.35 650.72 783.89 658.14 C 798.46 651.91 812.75 644.92 827.73 639.71 C 862.00 628.88 897.10 621.03 932.07 612.86 C 906.88 650.75 880.61 687.92 853.34 724.34 C 843.00 737.94 832.76 751.65 821.92 764.85 C 798.30 775.60 776.15 789.60 756.20 806.20 C 724.99 832.12 699.28 865.68 686.56 904.51 C 696.98 845.28 711.17 786.75 727.95 729.01 C 745.21 669.97 765.00 611.65 787.39 554.36 C 817.65 479.67 852.07 406.70 889.26 335.23 C 916.47 283.50 945.28 232.52 978.19 184.18 C 996.82 157.01 1016.97 130.73 1040.51 107.60 C 1015.96 127.49 993.68 150.03 972.76 173.66 C 927.56 225.23 889.02 282.28 854.53 341.45 C 811.38 416.03 774.82 494.34 743.93 574.76 C 739.75 585.06 736.66 595.76 733.08 606.28 C 711.26 673.95 693.32 742.92 680.46 812.87 C 669.98 870.03 662.84 927.86 660.84 985.96 C 659.28 1034.60 661.08 1083.60 670.27 1131.49 C 672.98 1145.34 676.39 1159.06 680.67 1172.51 C 678.21 1173.88 675.74 1175.23 673.27 1176.56 C 665.68 1158.43 661.71 1139.07 658.14 1119.83 C 653.93 1096.32 651.27 1072.56 649.19 1048.77 C 647.84 1041.25 648.23 1033.60 647.18 1026.05 C 646.81 1021.32 647.20 1016.56 646.62 1011.85 C 645.67 1004.25 646.14 996.60 645.93 988.98 C 644.86 969.16 644.98 949.29 646.06 929.48 C 647.34 923.23 647.71 916.61 646.05 910.39 C 645.42 907.36 645.05 904.28 644.85 901.20 C 645.64 899.37 645.51 897.24 644.06 895.81 C 643.98 895.47 643.81 894.78 643.72 894.44 C 644.52 892.88 644.33 891.02 643.09 889.77 C 643.00 889.43 642.81 888.75 642.72 888.41 C 643.54 886.86 643.34 885.01 642.09 883.79 C 642.00 883.45 641.81 882.77 641.71 882.43 C 642.55 880.89 642.33 879.04 641.11 877.82 L 640.87 877.24 C 641.56 875.68 641.35 873.87 640.06 872.72 C 640.00 872.37 639.88 871.67 639.82 871.33 C 640.53 869.76 640.34 867.94 639.08 866.74 C 638.99 866.41 638.80 865.74 638.70 865.41 C 639.43 864.04 639.23 862.84 638.11 861.80 C 638.05 861.43 637.92 860.68 637.86 860.30 C 638.57 858.75 638.34 856.97 637.08 855.81 L 636.91 855.22 C 637.58 853.67 637.35 851.89 636.07 850.75 C 635.98 850.41 635.82 849.72 635.73 849.38 C 636.44 848.02 636.24 846.83 635.13 845.81 C 635.03 845.45 634.83 844.73 634.73 844.37 C 635.45 843.02 635.24 841.83 634.12 840.82 C 634.02 840.45 633.82 839.72 633.72 839.35 C 634.44 838.00 634.24 836.82 633.13 835.80 C 633.03 835.43 632.82 834.71 632.72 834.34 C 633.45 833.00 633.25 831.82 632.11 830.81 L 631.98 830.19 C 632.64 828.66 632.36 826.88 630.96 825.90 C 629.64 821.13 628.61 816.28 627.74 811.42 C 628.52 810.04 628.28 808.90 627.00 807.99 C 624.35 799.07 622.66 789.90 620.12 780.95 C 617.29 770.75 614.27 760.59 610.54 750.68 C 608.22 744.49 605.59 738.40 602.36 732.62 C 600.20 728.91 600.82 724.44 600.79 720.34 C 601.96 703.96 606.04 687.97 609.91 672.07 C 610.88 668.26 611.84 664.44 612.96 660.67 C 624.04 679.87 634.96 699.19 644.84 719.03 C 649.65 728.26 652.80 738.21 655.92 748.10 C 652.98 732.89 648.94 717.91 644.80 702.99 C 638.56 681.71 631.61 660.48 621.42 640.72 C 620.59 639.00 619.25 637.16 620.19 635.21 C 622.50 627.34 624.99 619.52 627.44 611.70 C 630.83 601.27 634.29 590.87 637.76 580.47 C 647.63 597.37 657.02 614.56 665.94 631.99 C 669.13 638.85 673.10 645.45 674.75 652.92 C 675.90 657.49 677.66 661.88 679.03 666.39 C 677.92 660.44 676.69 654.50 674.92 648.72 C 673.25 643.28 672.13 637.71 670.84 632.19 C 665.76 612.93 659.98 593.81 652.50 575.33 C 650.27 569.75 647.77 564.28 645.21 558.85 C 647.33 548.17 649.63 537.51 652.15 526.91 C 655.81 511.59 659.98 496.40 664.45 481.29 C 669.04 465.83 674.08 450.51 679.40 435.29 C 683.52 423.55 687.84 411.88 692.35 400.29 C 698.23 385.08 704.50 370.02 711.02 355.07 C 716.15 343.31 721.48 331.64 727.01 320.07 C 731.92 309.71 737.00 299.43 742.24 289.24 C 748.06 277.79 754.16 266.49 760.37 255.25 C 766.04 245.04 771.92 234.95 777.90 224.93 C 785.02 213.11 792.37 201.42 799.99 189.92 C 810.22 174.34 821.09 159.18 832.40 144.36 C 844.14 129.11 856.58 114.41 869.66 100.31 C 877.87 91.17 886.72 82.58 896.08 74.62 C 910.26 62.32 925.17 50.73 941.61 41.59 Z" />
</g>
<g id="#0f80ccff">
<path fill="#0f80cc" opacity="1.00" d=" M 101.28 111.18 C 117.92 87.91 146.32 73.69 174.96 74.60 C 415.33 74.62 655.71 74.56 896.08 74.62 C 886.72 82.58 877.87 91.17 869.66 100.31 C 637.10 100.35 404.53 100.30 171.97 100.34 C 145.72 100.19 121.04 118.71 113.19 143.64 C 108.27 158.63 110.87 174.60 110.20 190.06 C 110.14 201.71 110.24 213.36 110.21 225.01 C 110.15 235.00 110.25 244.98 110.20 254.96 C 110.13 266.30 110.25 277.65 110.20 288.99 C 110.15 299.35 110.25 309.71 110.20 320.07 C 110.13 331.74 110.25 343.40 110.20 355.06 C 110.16 358.59 110.13 362.13 110.18 365.66 C 109.78 405.67 110.08 445.68 110.19 485.69 C 109.83 501.36 110.11 517.03 110.18 532.70 C 109.83 555.68 110.19 578.67 110.29 601.66 C 109.93 613.38 110.33 625.10 110.20 636.82 C 109.98 648.55 110.36 660.28 110.15 672.01 C 109.97 684.88 110.03 697.77 110.36 710.64 C 109.44 720.60 110.07 730.63 110.29 740.62 C 109.89 745.41 109.68 750.23 109.92 755.05 C 110.31 763.59 109.04 772.32 111.37 780.69 C 116.23 781.32 121.13 781.11 126.01 781.04 C 290.71 780.99 455.42 781.09 620.12 780.95 C 622.66 789.90 624.35 799.07 627.00 807.99 C 626.62 809.26 626.86 810.40 627.74 811.42 C 628.61 816.28 629.64 821.13 630.96 825.90 C 630.59 827.41 630.82 829.04 631.98 830.19 L 632.11 830.81 C 631.60 832.10 631.80 833.28 632.72 834.34 C 632.82 834.71 633.03 835.43 633.13 835.80 C 632.60 837.09 632.80 838.27 633.72 839.35 C 633.82 839.72 634.02 840.45 634.12 840.82 C 633.60 842.11 633.81 843.30 634.73 844.37 C 634.83 844.73 635.03 845.45 635.13 845.81 C 634.60 847.11 634.80 848.30 635.73 849.38 C 635.82 849.72 635.98 850.41 636.07 850.75 C 635.59 852.29 635.80 853.97 636.91 855.22 L 637.08 855.81 C 636.59 857.34 636.77 859.03 637.86 860.30 C 637.92 860.68 638.05 861.43 638.11 861.80 C 637.61 863.11 637.81 864.31 638.70 865.41 C 638.80 865.74 638.99 866.41 639.08 866.74 C 638.61 868.29 638.77 870.00 639.82 871.33 C 639.88 871.67 640.00 872.37 640.06 872.72 C 639.60 874.26 639.80 875.95 640.87 877.24 L 641.11 877.82 C 640.63 879.36 640.76 881.05 641.71 882.43 C 641.81 882.77 642.00 883.45 642.09 883.79 C 641.63 885.34 641.76 887.03 642.72 888.41 C 642.81 888.75 643.00 889.43 643.09 889.77 C 642.64 891.34 642.76 893.05 643.72 894.44 C 643.81 894.78 643.98 895.47 644.06 895.81 C 643.61 897.64 643.81 899.57 644.85 901.20 C 645.05 904.28 645.42 907.36 646.05 910.39 C 646.03 916.75 645.94 923.12 646.06 929.48 C 644.98 949.29 644.86 969.16 645.93 988.98 C 646.14 996.60 645.67 1004.25 646.62 1011.85 C 647.20 1016.56 646.81 1021.32 647.18 1026.05 C 648.23 1033.60 647.84 1041.25 649.19 1048.77 C 495.12 1048.99 341.04 1048.80 186.97 1048.86 C 176.92 1048.75 166.78 1049.41 156.86 1047.44 C 129.96 1042.66 105.99 1024.50 93.83 1000.09 C 87.58 987.70 84.37 973.83 84.48 959.97 C 84.48 694.30 84.48 428.63 84.49 162.97 C 84.40 144.50 90.38 126.09 101.28 111.18 Z" />
</g>
<g id="#96d8f6ff">
<path fill="#96d8f6" opacity="1.00" d=" M 113.19 143.64 C 121.04 118.71 145.72 100.19 171.97 100.34 C 404.53 100.30 637.10 100.35 869.66 100.31 C 856.58 114.41 844.14 129.11 832.40 144.36 C 805.94 143.43 779.46 144.41 752.98 144.00 C 543.97 143.94 334.95 143.99 125.93 143.99 C 121.68 144.07 117.43 143.87 113.19 143.64 Z" />
</g>
<g id="#8dd3f3ff">
<path fill="#8dd3f3" opacity="1.00" d=" M 110.20 190.06 C 110.87 174.60 108.27 158.63 113.19 143.64 C 117.43 143.87 121.68 144.07 125.93 143.99 C 334.95 143.99 543.97 143.94 752.98 144.00 C 779.46 144.41 805.94 143.43 832.40 144.36 C 821.09 159.18 810.22 174.34 799.99 189.92 C 606.34 189.96 412.68 189.94 219.02 189.96 C 193.69 190.21 168.35 189.67 143.02 190.07 C 132.08 189.90 121.14 189.87 110.20 190.06 Z" />
</g>
<g id="#85cdf0ff">
<path fill="#85cdf0" opacity="1.00" d=" M 110.20 190.06 C 121.14 189.87 132.08 189.90 143.02 190.07 C 168.35 189.67 193.69 190.21 219.02 189.96 C 412.68 189.94 606.34 189.96 799.99 189.92 C 792.37 201.42 785.02 213.11 777.90 224.93 C 555.33 225.07 332.77 224.92 110.21 225.01 C 110.24 213.36 110.14 201.71 110.20 190.06 Z" />
</g>
<g id="#7fc9eeff">
<path fill="#7fc9ee" opacity="1.00" d=" M 110.21 225.01 C 332.77 224.92 555.33 225.07 777.90 224.93 C 771.92 234.95 766.04 245.04 760.37 255.25 C 754.93 254.97 749.48 254.82 744.03 254.99 C 532.75 255.01 321.48 255.03 110.20 254.96 C 110.25 244.98 110.15 235.00 110.21 225.01 Z" />
</g>
<g id="#78c5ecff">
<path fill="#78c5ec" opacity="1.00" d=" M 110.20 254.96 C 321.48 255.03 532.75 255.01 744.03 254.99 C 749.48 254.82 754.93 254.97 760.37 255.25 C 754.16 266.49 748.06 277.79 742.24 289.24 C 690.49 288.69 638.73 289.18 586.97 288.99 C 428.05 288.96 269.13 289.02 110.20 288.99 C 110.25 277.65 110.13 266.30 110.20 254.96 Z" />
</g>
<g id="#72c1eaff">
<path fill="#72c1ea" opacity="1.00" d=" M 110.20 288.99 C 269.13 289.02 428.05 288.96 586.97 288.99 C 638.73 289.18 690.49 288.69 742.24 289.24 C 737.00 299.43 731.92 309.71 727.01 320.07 C 546.00 319.83 364.98 320.16 183.96 319.96 C 159.37 320.13 134.79 319.75 110.20 320.07 C 110.25 309.71 110.15 299.35 110.20 288.99 Z" />
</g>
<g id="#6bbce8ff">
<path fill="#6bbce8" opacity="1.00" d=" M 110.20 320.07 C 134.79 319.75 159.37 320.13 183.96 319.96 C 364.98 320.16 546.00 319.83 727.01 320.07 C 721.48 331.64 716.15 343.31 711.02 355.07 C 510.75 355.05 310.47 355.03 110.20 355.06 C 110.25 343.40 110.13 331.74 110.20 320.07 Z" />
</g>
<g id="#63b7e6ff">
<path fill="#63b7e6" opacity="1.00" d=" M 110.20 355.06 C 310.47 355.03 510.75 355.05 711.02 355.07 C 704.50 370.02 698.23 385.08 692.35 400.29 C 675.25 399.74 658.13 400.08 641.02 399.95 C 464.29 399.92 287.55 399.99 110.82 399.95 C 110.58 388.52 111.05 377.07 110.18 365.66 C 110.13 362.13 110.16 358.59 110.20 355.06 Z" />
</g>
<g id="#4aa7deff">
<path fill="#4aa7de" opacity="1.00" d=" M 110.19 485.69 C 110.08 445.68 109.78 405.67 110.18 365.66 C 111.05 377.07 110.58 388.52 110.82 399.95 C 110.76 411.66 110.83 423.37 110.99 435.08 C 111.03 450.28 110.83 465.49 111.36 480.68 C 116.21 481.22 121.08 481.02 125.94 480.94 C 281.62 480.90 437.31 480.97 593.00 480.97 C 616.81 481.23 640.64 480.43 664.45 481.29 C 659.98 496.40 655.81 511.59 652.15 526.91 C 642.41 527.33 632.68 526.80 622.95 526.89 C 545.30 527.36 467.66 526.65 390.02 527.10 C 351.35 526.64 312.68 527.33 274.00 527.03 C 259.67 526.63 245.34 527.37 231.01 526.98 C 194.01 527.01 157.02 527.00 120.03 527.13 C 117.13 527.17 114.24 527.00 111.36 526.73 C 110.44 513.07 111.95 499.30 110.19 485.69 Z" />
</g>
<g id="#5bb2e3ff">
<path fill="#5bb2e3" opacity="1.00" d=" M 110.82 399.95 C 287.55 399.99 464.29 399.92 641.02 399.95 C 658.13 400.08 675.25 399.74 692.35 400.29 C 687.84 411.88 683.52 423.55 679.40 435.29 C 669.95 434.69 660.48 435.20 651.02 435.07 C 543.34 434.93 435.66 435.14 327.97 435.01 C 255.65 435.21 183.32 434.85 110.99 435.08 C 110.83 423.37 110.76 411.66 110.82 399.95 Z" />
</g>
<g id="#53ade1ff">
<path fill="#53ade1" opacity="1.00" d=" M 110.99 435.08 C 183.32 434.85 255.65 435.21 327.97 435.01 C 435.66 435.14 543.34 434.93 651.02 435.07 C 660.48 435.20 669.95 434.69 679.40 435.29 C 674.08 450.51 669.04 465.83 664.45 481.29 C 640.64 480.43 616.81 481.23 593.00 480.97 C 437.31 480.97 281.62 480.90 125.94 480.94 C 121.08 481.02 116.21 481.22 111.36 480.68 C 110.83 465.49 111.03 450.28 110.99 435.08 Z" />
</g>
<g id="#40a0dbff">
<path fill="#40a0db" opacity="1.00" d=" M 110.19 485.69 C 111.95 499.30 110.44 513.07 111.36 526.73 C 114.24 527.00 117.13 527.17 120.03 527.13 C 157.02 527.00 194.01 527.01 231.01 526.98 C 245.34 527.37 259.67 526.63 274.00 527.03 C 312.68 527.33 351.35 526.64 390.02 527.10 C 467.66 526.65 545.30 527.36 622.95 526.89 C 632.68 526.80 642.41 527.33 652.15 526.91 C 649.63 537.51 647.33 548.17 645.21 558.85 C 647.77 564.28 650.27 569.75 652.50 575.33 C 650.33 575.60 648.16 575.89 645.98 576.02 C 589.34 575.76 532.70 576.08 476.06 575.94 C 366.72 575.93 257.39 576.02 148.05 575.93 C 135.83 575.75 123.58 576.43 111.38 575.71 C 110.44 561.39 111.99 546.95 110.18 532.70 C 110.11 517.03 109.83 501.36 110.19 485.69 Z" />
</g>
<g id="#389bd9ff">
<path fill="#389bd9" opacity="1.00" d=" M 110.18 532.70 C 111.99 546.95 110.44 561.39 111.38 575.71 C 123.58 576.43 135.83 575.75 148.05 575.93 C 257.39 576.02 366.72 575.93 476.06 575.94 C 532.70 576.08 589.34 575.76 645.98 576.02 C 648.16 575.89 650.33 575.60 652.50 575.33 C 659.98 593.81 665.76 612.93 670.84 632.19 C 672.13 637.71 673.25 643.28 674.92 648.72 C 674.89 650.11 674.84 651.51 674.75 652.92 C 673.10 645.45 669.13 638.85 665.94 631.99 C 657.02 614.56 647.63 597.37 637.76 580.47 C 634.29 590.87 630.83 601.27 627.44 611.70 C 624.99 611.35 622.53 611.00 620.06 610.91 C 461.71 611.07 303.37 610.90 145.02 610.97 C 133.89 610.76 122.73 611.52 111.63 610.70 C 111.10 607.69 110.55 604.70 110.29 601.66 C 110.19 578.67 109.83 555.68 110.18 532.70 Z" />
</g>
<g id="#3297d7ff">
<path fill="#3297d7" opacity="1.00" d=" M 110.29 601.66 C 110.55 604.70 111.10 607.69 111.63 610.70 C 122.73 611.52 133.89 610.76 145.02 610.97 C 303.37 610.90 461.71 611.07 620.06 610.91 C 622.53 611.00 624.99 611.35 627.44 611.70 C 624.99 619.52 622.50 627.34 620.19 635.21 C 619.25 637.16 620.59 639.00 621.42 640.72 C 600.61 641.25 579.78 640.97 558.97 640.97 C 415.33 641.14 271.69 640.88 128.05 641.04 C 122.55 641.00 117.03 641.40 111.56 640.66 C 111.09 639.37 110.62 638.10 110.20 636.82 C 110.33 625.10 109.93 613.38 110.29 601.66 Z" />
</g>
<g id="#2b93d5ff">
<path fill="#2b93d5" opacity="1.00" d=" M 110.20 636.82 C 110.62 638.10 111.09 639.37 111.56 640.66 C 117.03 641.40 122.55 641.00 128.05 641.04 C 271.69 640.88 415.33 641.14 558.97 640.97 C 579.78 640.97 600.61 641.25 621.42 640.72 C 631.61 660.48 638.56 681.71 644.80 702.99 C 648.94 717.91 652.98 732.89 655.92 748.10 C 652.80 738.21 649.65 728.26 644.84 719.03 C 634.96 699.19 624.04 679.87 612.96 660.67 C 611.84 664.44 610.88 668.26 609.91 672.07 C 514.95 672.16 419.99 671.98 325.03 672.09 C 253.41 671.97 181.77 672.23 110.15 672.01 C 110.36 660.28 109.98 648.55 110.20 636.82 Z" />
</g>
<g id="#238dd2ff">
<path fill="#238dd2" opacity="1.00" d=" M 110.15 672.01 C 181.77 672.23 253.41 671.97 325.03 672.09 C 419.99 671.98 514.95 672.16 609.91 672.07 C 606.04 687.97 601.96 703.96 600.79 720.34 C 598.53 720.61 596.26 720.87 593.99 720.99 C 438.99 720.87 283.99 721.03 128.99 720.95 C 123.19 720.96 117.37 721.42 111.59 720.74 C 111.21 717.37 110.74 714.00 110.36 710.64 C 110.03 697.77 109.97 684.88 110.15 672.01 Z" />
</g>
<g id="#1b88d0ff">
<path fill="#1b88d0" opacity="1.00" d=" M 110.36 710.64 C 110.74 714.00 111.21 717.37 111.59 720.74 C 117.37 721.42 123.19 720.96 128.99 720.95 C 283.99 721.03 438.99 720.87 593.99 720.99 C 596.26 720.87 598.53 720.61 600.79 720.34 C 600.82 724.44 600.20 728.91 602.36 732.62 C 605.59 738.40 608.22 744.49 610.54 750.68 C 602.04 751.23 593.53 751.02 585.03 751.02 C 431.37 751.04 277.72 750.98 124.06 751.01 C 119.89 751.09 115.71 751.15 111.55 750.73 C 111.16 747.35 110.69 743.99 110.29 740.62 C 110.07 730.63 109.44 720.60 110.36 710.64 Z" />
</g>
<g id="#1584ceff">
<path fill="#1584ce" opacity="1.00" d=" M 110.29 740.62 C 110.69 743.99 111.16 747.35 111.55 750.73 C 115.71 751.15 119.89 751.09 124.06 751.01 C 277.72 750.98 431.37 751.04 585.03 751.02 C 593.53 751.02 602.04 751.23 610.54 750.68 C 614.27 760.59 617.29 770.75 620.12 780.95 C 455.42 781.09 290.71 780.99 126.01 781.04 C 121.13 781.11 116.23 781.32 111.37 780.69 C 109.04 772.32 110.31 763.59 109.92 755.05 C 109.68 750.23 109.89 745.41 110.29 740.62 Z" />
</g>
<g id="#033d5ec8">
<path fill="#033d5e" opacity="0.78" d=" M 627.00 807.99 C 628.28 808.90 628.52 810.04 627.74 811.42 C 626.86 810.40 626.62 809.26 627.00 807.99 Z" />
</g>
<g id="#05466cce">
<path fill="#05466c" opacity="0.81" d=" M 630.96 825.90 C 632.36 826.88 632.64 828.66 631.98 830.19 C 630.82 829.04 630.59 827.41 630.96 825.90 Z" />
</g>
<g id="#033f61ca">
<path fill="#033f61" opacity="0.79" d=" M 632.11 830.81 C 633.25 831.82 633.45 833.00 632.72 834.34 C 631.80 833.28 631.60 832.10 632.11 830.81 Z" />
</g>
<g id="#034062ca">
<path fill="#034062" opacity="0.79" d=" M 633.13 835.80 C 634.24 836.82 634.44 838.00 633.72 839.35 C 632.80 838.27 632.60 837.09 633.13 835.80 Z" />
</g>
<g id="#033f63c9">
<path fill="#033f63" opacity="0.79" d=" M 634.12 840.82 C 635.24 841.83 635.45 843.02 634.73 844.37 C 633.81 843.30 633.60 842.11 634.12 840.82 Z" />
</g>
<g id="#034062c8">
<path fill="#034062" opacity="0.78" d=" M 635.13 845.81 C 636.24 846.83 636.44 848.02 635.73 849.38 C 634.80 848.30 634.60 847.11 635.13 845.81 Z" />
</g>
<g id="#05466ccc">
<path fill="#05466c" opacity="0.80" d=" M 636.07 850.75 C 637.35 851.89 637.58 853.67 636.91 855.22 C 635.80 853.97 635.59 852.29 636.07 850.75 Z" />
</g>
<g id="#044266ce">
<path fill="#044266" opacity="0.81" d=" M 637.08 855.81 C 638.34 856.97 638.57 858.75 637.86 860.30 C 636.77 859.03 636.59 857.34 637.08 855.81 Z" />
</g>
<g id="#044063c5">
<path fill="#044063" opacity="0.77" d=" M 638.11 861.80 C 639.23 862.84 639.43 864.04 638.70 865.41 C 637.81 864.31 637.61 863.11 638.11 861.80 Z" />
</g>
<g id="#044164c5">
<path fill="#044164" opacity="0.77" d=" M 639.08 866.74 C 640.34 867.94 640.53 869.76 639.82 871.33 C 638.77 870.00 638.61 868.29 639.08 866.74 Z" />
</g>
<g id="#05466cc8">
<path fill="#05466c" opacity="0.78" d=" M 640.06 872.72 C 641.35 873.87 641.56 875.68 640.87 877.24 C 639.80 875.95 639.60 874.26 640.06 872.72 Z" />
</g>
<g id="#033e5fc9">
<path fill="#033e5f" opacity="0.79" d=" M 641.11 877.82 C 642.33 879.04 642.55 880.89 641.71 882.43 C 640.76 881.05 640.63 879.36 641.11 877.82 Z" />
</g>
<g id="#034062c9">
<path fill="#034062" opacity="0.79" d=" M 642.09 883.79 C 643.34 885.01 643.54 886.86 642.72 888.41 C 641.76 887.03 641.63 885.34 642.09 883.79 Z" />
</g>
<g id="#033f60c7">
<path fill="#033f60" opacity="0.78" d=" M 643.09 889.77 C 644.33 891.02 644.52 892.88 643.72 894.44 C 642.76 893.05 642.64 891.34 643.09 889.77 Z" />
</g>
<g id="#05446bcd">
<path fill="#05446b" opacity="0.80" d=" M 644.06 895.81 C 645.51 897.24 645.64 899.37 644.85 901.20 C 643.81 899.57 643.61 897.64 644.06 895.81 Z" />
</g>
<g id="#013752cc">
<path fill="#013752" opacity="0.80" d=" M 646.05 910.39 C 647.71 916.61 647.34 923.23 646.06 929.48 C 645.94 923.12 646.03 916.75 646.05 910.39 Z" />
</g>
</svg>
