<?xml version="1.0" encoding="UTF-8" ?>
<!DOCTYPE svg PUBLIC "-//W3C//DTD SVG 1.1//EN" "http://www.w3.org/Graphics/SVG/1.1/DTD/svg11.dtd">
<svg width="768pt" height="768pt" viewBox="0 0 768 768" version="1.1" xmlns="http://www.w3.org/2000/svg">
<g id="#3178c6ff">
<path fill="#3178c6" opacity="1.00" d=" M 67.64 0.00 L 700.17 0.00 C 719.23 2.12 737.56 11.27 749.98 26.00 C 760.29 37.78 766.39 52.90 768.00 68.42 L 768.00 700.15 C 766.21 715.00 760.55 729.49 750.84 740.97 C 738.08 756.58 718.75 766.46 698.68 768.00 L 68.48 768.00 C 53.17 766.44 38.27 760.47 26.55 750.43 C 11.41 737.87 1.88 719.12 0.00 699.59 L 0.00 68.45 C 1.54 53.14 7.53 38.24 17.58 26.52 C 29.98 11.56 48.42 2.22 67.64 0.00 M 550.03 364.18 C 534.63 368.49 519.78 375.30 507.18 385.22 C 491.27 397.80 479.56 415.95 475.92 436.01 C 472.12 456.97 473.62 479.49 483.31 498.73 C 490.43 513.10 502.01 524.79 514.95 534.05 C 529.63 544.77 546.39 552.08 563.13 558.90 C 578.77 565.72 594.85 572.19 608.52 582.63 C 615.39 588.16 622.09 594.95 624.25 603.79 C 626.76 613.29 624.13 624.09 616.94 630.91 C 608.35 639.16 596.39 642.65 584.87 644.32 C 545.85 649.29 505.32 636.52 475.42 611.15 C 475.42 636.18 475.37 661.22 475.44 686.26 C 495.79 696.48 518.41 701.14 540.91 703.47 C 566.72 706.00 592.95 705.57 618.47 700.68 C 633.46 697.86 648.20 693.04 661.37 685.24 C 678.07 675.65 691.62 660.44 698.67 642.46 C 704.75 626.45 705.89 608.91 704.35 591.97 C 702.83 575.35 696.34 559.22 685.67 546.37 C 673.50 531.71 657.20 521.21 640.37 512.66 C 620.80 502.41 599.58 495.62 580.42 484.54 C 571.83 479.50 563.36 473.57 557.86 465.09 C 552.37 456.25 552.40 444.04 558.60 435.56 C 564.35 427.46 573.66 422.77 583.00 420.11 C 599.52 415.49 617.02 415.96 633.84 418.56 C 653.79 421.83 673.42 428.60 690.20 440.05 C 690.22 416.67 690.22 393.29 690.20 369.92 C 665.63 360.53 639.15 357.46 613.00 357.10 C 591.83 356.54 570.48 358.55 550.03 364.18 M 177.01 364.54 C 177.00 385.07 176.99 405.60 177.01 426.12 C 208.96 426.15 240.91 426.12 272.85 426.14 C 272.84 517.55 272.92 608.95 272.81 700.36 C 276.52 700.77 280.27 700.42 283.99 700.53 C 305.73 700.42 327.49 700.76 349.22 700.37 C 349.11 608.96 349.20 517.55 349.18 426.14 C 381.30 426.02 413.43 426.35 445.54 425.97 C 445.43 405.49 445.56 385.01 445.48 364.53 C 355.99 364.54 266.50 364.52 177.01 364.54 Z" />
</g>
<g id="#ffffffff">
<path fill="#ffffff" opacity="1.00" d=" M 550.03 364.18 C 570.48 358.55 591.83 356.54 613.00 357.10 C 639.15 357.46 665.63 360.53 690.20 369.92 C 690.22 393.29 690.22 416.67 690.20 440.05 C 673.42 428.60 653.79 421.83 633.84 418.56 C 617.02 415.96 599.52 415.49 583.00 420.11 C 573.66 422.77 564.35 427.46 558.60 435.56 C 552.40 444.04 552.37 456.25 557.86 465.09 C 563.36 473.57 571.83 479.50 580.42 484.54 C 599.58 495.62 620.80 502.41 640.37 512.66 C 657.20 521.21 673.50 531.71 685.67 546.37 C 696.34 559.22 702.83 575.35 704.35 591.97 C 705.89 608.91 704.75 626.45 698.67 642.46 C 691.62 660.44 678.07 675.65 661.37 685.24 C 648.20 693.04 633.46 697.86 618.47 700.68 C 592.95 705.57 566.72 706.00 540.91 703.47 C 518.41 701.14 495.79 696.48 475.44 686.26 C 475.37 661.22 475.42 636.18 475.42 611.15 C 505.32 636.52 545.85 649.29 584.87 644.32 C 596.39 642.65 608.35 639.16 616.94 630.91 C 624.13 624.09 626.76 613.29 624.25 603.79 C 622.09 594.95 615.39 588.16 608.52 582.63 C 594.85 572.19 578.77 565.72 563.13 558.90 C 546.39 552.08 529.63 544.77 514.95 534.05 C 502.01 524.79 490.43 513.10 483.31 498.73 C 473.62 479.49 472.12 456.97 475.92 436.01 C 479.56 415.95 491.27 397.80 507.18 385.22 C 519.78 375.30 534.63 368.49 550.03 364.18 Z" />
<path fill="#ffffff" opacity="1.00" d=" M 177.01 364.54 C 266.50 364.52 355.99 364.54 445.48 364.53 C 445.56 385.01 445.43 405.49 445.54 425.97 C 413.43 426.35 381.30 426.02 349.18 426.14 C 349.20 517.55 349.11 608.96 349.22 700.37 C 327.49 700.76 305.73 700.42 283.99 700.53 C 280.27 700.42 276.52 700.77 272.81 700.36 C 272.92 608.95 272.84 517.55 272.85 426.14 C 240.91 426.12 208.96 426.15 177.01 426.12 C 176.99 405.60 177.00 385.07 177.01 364.54 Z" />
</g>
</svg>
